<svg data-v-fde0c5aa="" xmlns="http://www.w3.org/2000/svg" viewBox="0 0 300 300" class="icon"><!----><defs data-v-fde0c5aa=""><!----></defs><rect data-v-fde0c5aa="" fill="transparent" x="0" y="0" width="300px" height="300px" class="logo-background-square"></rect><!----><defs data-v-fde0c5aa=""><!----></defs><g data-v-fde0c5aa="" id="5c4b2c93-7e29-4a9b-a935-1455d8916e8a" fill="#EDCA05" stroke="none" transform="matrix(2.316931207748473,0,0,2.316931207748473,34.32295608789989,34.15344403177193)"><switch><g><path d="M92.9 15.9H53.3c-2.5 0-4.7 2-4.7 4.6v30.8l.9-.2c.7-.1 1.4-.2 2-.2h.8l2.2.2c2.5.2 4.7 1.5 6.2 3.4 1.5 2 2.1 4.4 1.8 6.8L59.8 79c-.2 1.4-.7 2.6-1.6 3.7h37c1.2 0 2.2-1 2.2-2.2v-60c.1-2.5-2-4.6-4.5-4.6zM85.6 38c0 .7-.5 1.2-1.2 1.2H61.7c-.7 0-1.2-.5-1.2-1.2v-9.4c0-.7.5-1.2 1.2-1.2h22.7c.7 0 1.2.6 1.2 1.2V38zM31.1 59.2c-.1-1.8.4-3.5 1.4-4.9-.5-.1-1.1-.2-1.8-.1l-1.8.2-5.2 8.1 2.5 16.1c.5 2.9 3.2 5 6.1 4.8.3 0 .6-.1.9-.2-.5-.9-.7-1.9-.8-3l-1.3-21z"></path><path d="M54.3 54.4l-2.2-.2c-.6 0-1.2 0-1.8.1 1 1.4 1.5 3.2 1.4 4.9l-1.3 21c-.1 1.1-.4 2.1-.8 3 .3.1.6.1.9.2 3 .3 5.7-1.8 6.1-4.8L59.3 61c.6-3.3-1.8-6.3-5-6.6zM44 54.3h-1.5c.2-2.5.8-5.3 1.3-6.6.5-1.2-3.3-1.3-3.6-.1-.3 1-.7 4.1-.9 6.7h-.6c-2.5 0-4.5 2.1-4.4 4.7l1.3 21c.1 2.3 2.1 4.1 4.4 4.1h2.6c2.3 0 4.2-1.8 4.4-4.1l1.3-21c.3-2.5-1.7-4.7-4.3-4.7zM16 39.1l9.7 3.8c.2.1.4.2.5.2l5.2-5c.8-.7.5-2.1-.5-2.5-.2-.1-.4-.1-.6-.1-.2 0-.5.1-.7.2l-5 2.7 1.4-6.1c.2-.7-.2-1.5-.9-1.8l-.2-.1c-.7-.3-1.5 0-1.9.7l-3.2 5.4-1.8-5.3c-.1-.5-.5-.8-.9-.9-.2-.1-.4-.1-.6-.1-.8 0-1.6.7-1.5 1.6l.5 7.2c.2 0 .4 0 .5.1zM11.7 60.5c.3-.8 1.3-1.2 2.1-.9l6.6 2.7 6.4-9.8c1.6-2.4.6-5.7-2.2-6.8L15 41.8c-2.7-1.1-5.7.6-6.2 3.5l-.3 1.8 8.8 3.4c.8.3 1.2 1.3.9 2.1l-.1.2c-.2.7-.9 1-1.5 1-.2 0-.4 0-.6-.1l-8.1-3.2L5 67.2l4.2 1.6c.4.2.7.5.9.9.2.4.2.8 0 1.2l-.1.2c-.3.7-.9 1-1.5 1-.2 0-.4 0-.6-.1l-3.5-1.4-1.9 10.7C2 83.8 5.4 85.2 6.8 83l11.6-17.8-6-2.4c-.4-.2-.7-.5-.9-.9-.2-.4-.2-.8 0-1.2l.2-.2z"></path></g></switch></g><!----></svg>